<?xml version="1.0" standalone="no"?>
<!DOCTYPE svg PUBLIC "-//W3C//DTD SVG 20010904//EN"
 "http://www.w3.org/TR/2001/REC-SVG-20010904/DTD/svg10.dtd">
<svg version="1.0" xmlns="http://www.w3.org/2000/svg"
 width="540.000000pt" height="540.000000pt" viewBox="0 0 540.000000 540.000000"
 preserveAspectRatio="xMidYMid meet">

<g transform="translate(0.000000,540.000000) scale(0.100000,-0.100000)"
fill="#000000" stroke="none">
<path d="M2500 4614 c-20 -9 -121 -101 -242 -222 l-208 -207 196 -196 197
-197 44 15 c65 22 185 14 248 -17 63 -31 124 -92 155 -155 31 -63 39 -189 17
-250 l-15 -40 225 -226 226 -227 44 15 c65 22 185 14 248 -17 63 -31 124 -92
156 -155 21 -43 24 -64 24 -150 0 -85 -4 -106 -23 -143 -36 -67 -98 -129 -161
-159 -47 -23 -70 -27 -141 -28 -72 0 -94 4 -141 26 -151 71 -229 239 -184 394
l17 58 -225 225 c-162 162 -229 223 -241 219 -14 -6 -16 -64 -16 -590 l0 -584
39 -18 c52 -23 125 -97 153 -154 19 -39 23 -62 23 -146 0 -85 -4 -106 -23
-143 -36 -67 -98 -129 -161 -159 -47 -23 -70 -27 -141 -28 -72 0 -94 4 -141
26 -72 34 -134 96 -168 168 -22 47 -26 70 -26 141 1 73 5 93 29 140 35 70 77
114 144 152 l52 30 0 578 0 578 -44 22 c-139 67 -215 236 -171 385 l17 58
-196 196 -196 196 -651 -650 c-358 -358 -659 -666 -669 -685 -30 -58 -34 -102
-15 -167 l16 -58 937 -938 c688 -688 949 -943 982 -959 60 -30 140 -30 195 -1
60 32 1910 1887 1930 1935 21 51 19 124 -6 178 -29 65 -1852 1889 -1923 1925
-58 29 -132 33 -186 9z"/>
</g>
</svg>
