<?xml version="1.0" standalone="no"?>
<!DOCTYPE svg PUBLIC "-//W3C//DTD SVG 20010904//EN"
 "http://www.w3.org/TR/2001/REC-SVG-20010904/DTD/svg10.dtd">
<svg version="1.0" xmlns="http://www.w3.org/2000/svg"
 width="1280.000000pt" height="720.000000pt" viewBox="0 0 1280.000000 720.000000"
 preserveAspectRatio="xMidYMid meet">

<g transform="translate(0.000000,720.000000) scale(0.100000,-0.100000)"
fill="#000000" stroke="none">
<path d="M2270 3603 c-41 -14 -122 -35 -180 -47 -89 -18 -105 -24 -108 -42 -2
-16 11 -25 78 -53 44 -18 84 -40 90 -50 15 -29 22 -282 13 -478 -10 -213 -12
-218 -109 -237 l-59 -12 0 -38 0 -39 255 0 255 0 3 40 3 41 -51 7 c-31 4 -62
16 -78 30 l-26 22 -4 305 -4 304 25 30 c35 41 138 87 208 92 98 7 170 -31 211
-111 30 -60 43 -223 33 -440 -9 -209 -10 -213 -100 -231 l-60 -12 -3 -39 -3
-40 256 0 255 0 6 32 c8 42 2 50 -49 58 -50 9 -93 29 -100 49 -3 7 -7 155 -8
327 l-2 313 30 23 c76 59 219 80 299 44 49 -22 100 -82 117 -136 8 -27 12
-124 12 -302 0 -300 2 -293 -91 -317 -47 -12 -49 -13 -52 -52 l-3 -39 253 1
253 1 7 34 c3 18 5 36 2 40 -2 4 -25 10 -51 14 -57 8 -99 28 -113 54 -6 12
-10 129 -9 303 0 237 -3 292 -16 338 -33 106 -81 166 -169 213 -32 17 -59 21
-126 22 -80 0 -90 -3 -174 -43 -49 -23 -110 -58 -136 -77 -26 -19 -52 -35 -56
-35 -5 0 -28 22 -52 50 -23 27 -64 62 -90 77 -41 24 -58 28 -127 28 -72 0 -88
-4 -159 -38 -44 -21 -102 -54 -129 -73 -71 -51 -83 -45 -78 44 1 39 -1 72 -5
71 -5 -1 -43 -12 -84 -26z"/>
<path d="M4460 3620 c-126 -22 -241 -82 -319 -166 -101 -108 -139 -221 -128
-387 18 -289 182 -462 458 -484 183 -14 387 81 486 225 106 155 121 398 36
572 -88 181 -307 279 -533 240z m163 -133 c128 -67 207 -235 207 -436 0 -161
-42 -273 -122 -327 -40 -27 -50 -29 -133 -29 -80 0 -95 3 -136 27 -138 81
-209 236 -209 453 0 127 15 191 59 252 76 105 206 128 334 60z"/>
<path d="M5535 3599 c-49 -16 -130 -37 -178 -45 -66 -13 -90 -21 -98 -36 -15
-27 2 -43 64 -64 29 -9 67 -28 85 -41 l34 -25 -4 -319 c-3 -366 1 -350 -99
-372 l-54 -12 0 -44 0 -44 260 0 260 0 3 45 3 46 -55 6 c-31 4 -66 16 -78 26
-23 18 -23 20 -26 322 -2 232 1 309 10 328 8 14 41 39 77 57 54 29 73 33 137
33 86 0 126 -14 171 -61 61 -65 67 -114 64 -536 -1 -144 -8 -157 -90 -168 -43
-6 -52 -11 -57 -31 -3 -13 -4 -34 -1 -46 l6 -23 258 1 258 1 3 45 3 45 -58 12
c-108 21 -103 7 -103 274 0 381 -20 480 -116 573 -69 67 -128 88 -231 82 -60
-4 -88 -12 -156 -46 -45 -22 -101 -57 -124 -76 -22 -20 -44 -36 -47 -36 -3 0
-6 35 -8 77 -2 42 -7 77 -13 79 -5 1 -50 -11 -100 -27z"/>
<path d="M7067 3615 c-152 -39 -266 -120 -316 -225 -23 -48 -26 -67 -26 -155
1 -82 5 -109 23 -151 28 -63 90 -124 159 -159 30 -15 50 -31 47 -38 -2 -7 -41
-35 -87 -62 -67 -41 -83 -55 -85 -78 -6 -49 55 -121 123 -147 14 -5 25 -13 25
-18 0 -5 -24 -25 -52 -44 -71 -47 -166 -134 -183 -169 -36 -69 -4 -189 69
-263 133 -132 408 -155 630 -52 182 83 296 221 312 373 10 98 -25 186 -97 239
-54 40 -133 56 -364 74 -160 13 -200 22 -221 55 -32 49 18 105 95 105 150 1
321 102 383 228 32 64 33 71 33 187 l0 121 55 -3 c67 -5 99 10 122 57 17 34
24 100 12 112 -3 4 -21 -4 -39 -17 -66 -44 -167 -41 -315 10 -95 32 -221 41
-303 20z m153 -108 c139 -70 175 -338 62 -459 -80 -85 -233 -66 -304 39 -57
83 -76 228 -43 325 40 115 164 157 285 95z m145 -972 c107 -29 165 -92 165
-180 -1 -98 -68 -185 -171 -221 -80 -28 -244 -26 -320 4 -58 23 -131 79 -151
115 -20 37 -27 100 -17 140 13 48 76 118 132 147 39 20 53 21 172 16 72 -3
157 -12 190 -21z"/>
<path d="M8365 3624 c-172 -27 -347 -139 -408 -262 -46 -90 -60 -151 -60 -252
2 -323 199 -530 505 -530 63 0 185 33 259 70 115 59 215 177 248 295 83 295
-37 569 -287 657 -55 19 -195 31 -257 22z m125 -125 c53 -23 122 -87 155 -144
79 -135 95 -384 34 -526 -25 -57 -81 -112 -134 -129 -54 -18 -160 -8 -214 19
-91 47 -162 148 -198 281 -25 93 -24 266 2 345 25 79 101 158 166 173 56 13
132 5 189 -19z"/>
<path d="M1435 3560 c-83 -13 -197 -29 -245 -35 -25 -3 -90 -14 -145 -25 -55
-11 -133 -25 -172 -31 l-73 -12 -1 -66 c0 -36 -2 -84 -4 -106 -38 -407 -12
-677 70 -745 25 -21 57 2 185 130 225 225 373 503 439 828 13 63 13 72 4 71
-5 -1 -30 -5 -58 -9z"/>
</g>
</svg>
