<?xml version="1.0" standalone="no"?>
<!DOCTYPE svg PUBLIC "-//W3C//DTD SVG 20010904//EN"
 "http://www.w3.org/TR/2001/REC-SVG-20010904/DTD/svg10.dtd">
<svg version="1.0" xmlns="http://www.w3.org/2000/svg"
 width="500.000000pt" height="500.000000pt" viewBox="0 0 500.000000 500.000000"
 preserveAspectRatio="xMidYMid meet">

<g transform="translate(0.000000,500.000000) scale(0.100000,-0.100000)"
fill="#000000" stroke="none">
<path d="M2390 4833 c-190 -18 -301 -49 -465 -128 -344 -166 -615 -485 -754
-889 -96 -278 -135 -506 -135 -791 0 -408 93 -786 290 -1182 l95 -192 -22 -63
c-17 -49 -20 -79 -17 -139 20 -353 494 -448 650 -131 30 60 33 76 33 152 0 76
-3 93 -33 152 -58 118 -166 188 -301 193 -76 3 -72 -1 -146 145 -162 322 -239
626 -252 990 -12 350 45 652 172 915 101 207 218 363 347 460 212 159 563 249
790 200 154 -32 267 -96 393 -220 212 -210 350 -505 409 -875 l6 -35 143 -44
c78 -24 147 -45 153 -47 13 -6 1 122 -26 268 -116 620 -482 1080 -973 1222
-76 22 -260 49 -306 44 -9 0 -32 -3 -51 -5z"/>
<path d="M2099 3380 c-65 -11 -112 -35 -170 -88 -183 -165 -136 -465 89 -570
81 -38 202 -38 282 -1 72 34 115 71 157 136 l34 53 107 0 c820 0 1624 -447
1935 -1075 68 -137 102 -235 123 -356 49 -279 -45 -559 -257 -771 -153 -152
-327 -231 -571 -258 -192 -21 -458 18 -657 98 -41 16 -68 22 -76 16 -7 -5 -69
-55 -138 -111 l-126 -101 84 -35 c289 -122 583 -172 852 -147 203 18 365 65
556 161 294 148 518 405 592 680 79 293 40 620 -110 937 -93 193 -181 316
-370 511 -236 244 -516 426 -869 565 -270 107 -651 175 -978 176 l-108 0 -72
74 c-56 56 -84 77 -123 89 -67 21 -130 27 -186 17z"/>
<path d="M695 2584 c-219 -175 -404 -398 -505 -609 -209 -439 -188 -937 56
-1307 227 -343 741 -543 1252 -487 366 39 781 190 1092 396 343 227 594 500
803 875 59 105 65 113 100 120 161 34 278 195 264 365 -24 302 -396 429 -599
205 -70 -77 -83 -114 -83 -232 0 -112 13 -154 71 -223 l23 -27 -41 -72 c-217
-383 -486 -635 -957 -894 -276 -152 -547 -224 -846 -224 -371 0 -625 102 -805
322 -65 80 -153 258 -182 368 -33 125 -31 309 5 442 49 185 147 358 300 530
46 51 112 116 146 143 41 34 59 55 55 65 -3 8 -22 79 -43 157 l-36 142 -70
-55z"/>
</g>
</svg>
